<svg width="217" height="129" viewBox="0 0 217 129" fill="none" xmlns="http://www.w3.org/2000/svg">
<path d="M37.4647 128.416V126.874H38.2536V122.229H37.6275L37.2268 123.44H35.9746V120.705H42.5172V123.44H41.265L40.8706 122.229H40.2445V126.874H41.0209V128.416H37.4647Z" fill="#1E8EC8"/>
<path d="M42.9629 128.416V126.874H43.7518V122.247H42.9629V120.705H46.5692V122.247H45.7615V123.652H48.0342V122.247H47.214V120.705H50.8265V122.247H50.0439V126.874H50.8265V128.416H47.214V126.874H48.0342V125.188H45.7615V126.874H46.5692V128.416H42.9629Z" fill="#1E8EC8"/>
<path d="M51.9217 122.247H51.1328V120.705H54.7391V122.247H53.9252V125.475C53.8834 125.658 53.8834 125.848 53.9253 126.031C53.9672 126.214 54.0499 126.385 54.1672 126.532C54.2845 126.678 54.4334 126.797 54.6028 126.878C54.7723 126.959 54.9579 127.002 55.146 127.002C55.3341 127.002 55.5198 126.959 55.6892 126.878C55.8587 126.797 56.0076 126.678 56.1249 126.532C56.2422 126.385 56.3248 126.214 56.3667 126.031C56.4086 125.848 56.4087 125.658 56.3669 125.475V122.247H55.5592V120.705H59.1592V122.247H58.3829V125.75C58.3829 127.486 57.1307 128.572 55.1523 128.572C53.1739 128.572 51.9217 127.486 51.9217 125.75V122.247Z" fill="#1E8EC8"/>
<path d="M60.8927 121.529C61.6681 120.899 62.6378 120.555 63.6381 120.555C64.6384 120.555 65.6081 120.899 66.3835 121.529C66.8178 121.907 67.1659 122.373 67.4044 122.895C67.643 123.418 67.7664 123.986 67.7664 124.561C67.7664 125.135 67.643 125.703 67.4044 126.226C67.1659 126.749 66.8178 127.215 66.3835 127.592C65.6096 128.226 64.6394 128.572 63.6381 128.572C62.6368 128.572 61.6665 128.226 60.8927 127.592C60.4584 127.215 60.1103 126.749 59.8717 126.226C59.6332 125.703 59.5098 125.135 59.5098 124.561C59.5098 123.986 59.6332 123.418 59.8717 122.895C60.1103 122.373 60.4584 121.907 60.8927 121.529ZM63.6475 126.699C64.0789 126.728 64.5091 126.627 64.882 126.408C65.2549 126.19 65.5533 125.865 65.7382 125.475C65.9232 125.085 65.9862 124.649 65.9191 124.223C65.852 123.797 65.6578 123.401 65.3618 123.086C65.0659 122.772 64.6819 122.553 64.2598 122.46C63.8377 122.366 63.3971 122.401 62.9953 122.56C62.5935 122.72 62.2491 122.996 62.007 123.353C61.7649 123.711 61.6362 124.133 61.6377 124.564C61.6208 124.836 61.6593 125.108 61.751 125.364C61.8427 125.621 61.9857 125.856 62.1713 126.056C62.3569 126.255 62.5812 126.415 62.8306 126.526C63.0801 126.637 63.3495 126.695 63.6224 126.699H63.6475Z" fill="#1E8EC8"/>
<path d="M68.2871 128.416V126.874H69.076V122.247H68.2871V120.705H71.0356L73.6402 124.939L73.5775 122.229H72.7511V120.687H76.3073V122.229H75.5184V128.398H73.8468L70.9981 123.752L71.0419 126.874H71.8558V128.416H68.2871Z" fill="#1E8EC8"/>
<path d="M81.4655 125.6V124.164H85.3848V125.6H84.6836V128.416H83.0308V127.436C82.7451 127.807 82.3756 128.106 81.9524 128.308C81.5292 128.509 81.0642 128.609 80.5953 128.598C79.6511 128.602 78.7389 128.257 78.0346 127.63C77.6078 127.246 77.2669 126.777 77.0339 126.253C76.8009 125.729 76.6811 125.162 76.6822 124.589C76.6731 124.065 76.7687 123.545 76.9635 123.059C77.1584 122.572 77.4485 122.13 77.8169 121.756C78.1853 121.383 78.6247 121.087 79.1093 120.885C79.5938 120.683 80.1139 120.579 80.6391 120.58C80.9897 120.563 81.3402 120.616 81.6695 120.738C81.9987 120.859 82.2999 121.045 82.5549 121.286V120.73H84.2829V123.415H82.3295C82.2122 123.103 81.996 122.837 81.7136 122.657C81.4312 122.478 81.098 122.396 80.7643 122.422C80.4864 122.422 80.2115 122.48 79.9569 122.591C79.7022 122.702 79.4733 122.864 79.2846 123.068C79.0959 123.271 78.9514 123.511 78.8602 123.773C78.769 124.035 78.733 124.313 78.7546 124.589C78.7279 124.865 78.7604 125.144 78.8499 125.407C78.9395 125.67 79.0841 125.912 79.2741 126.115C79.4641 126.318 79.6953 126.478 79.9522 126.585C80.2091 126.693 80.4859 126.744 80.7643 126.737C81.1206 126.742 81.4699 126.638 81.7653 126.439C82.0608 126.241 82.2882 125.957 82.4172 125.625L81.4655 125.6Z" fill="#1E8EC8"/>
<path d="M85.7246 128.416V126.874H86.501V122.247H85.7246V120.705H89.3434L90.5455 123.877L91.6912 120.705H95.3225V122.247H94.5399V126.874H95.3225V128.416H91.7977V126.874H92.6178V122.603L91.0025 126.812H90.0446L88.4543 122.622V126.893H89.2933V128.435L85.7246 128.416Z" fill="#1E8EC8"/>
<path d="M95.6035 128.416V126.874H96.2296L97.6696 122.247H96.9308V120.705H102.378V122.247H101.626L103.066 126.874H103.693V128.416H100.312V126.874H101L100.687 125.831H98.5712L98.2832 126.874H98.9593V128.416H95.6035ZM98.9093 124.464H100.406L99.648 122.023L98.9093 124.464Z" fill="#1E8EC8"/>
<path d="M103.986 128.416V126.874H104.769V122.247H103.986V120.705H107.593V122.247H106.779V126.874H107.593V128.416H103.986Z" fill="#1E8EC8"/>
<path d="M111.687 122.247H110.904V120.705H114.511V122.247H113.709V125.475C113.667 125.658 113.667 125.848 113.709 126.031C113.751 126.214 113.834 126.385 113.951 126.532C114.068 126.678 114.217 126.797 114.387 126.878C114.556 126.959 114.742 127.002 114.93 127.002C115.118 127.002 115.304 126.959 115.473 126.878C115.643 126.797 115.792 126.678 115.909 126.532C116.026 126.385 116.109 126.214 116.151 126.031C116.193 125.848 116.193 125.658 116.151 125.475V122.247H115.343V120.705H118.937V122.247H118.154V125.75C118.154 127.486 116.902 128.572 114.918 128.572C112.933 128.572 111.687 127.486 111.687 125.75V122.247Z" fill="#1E8EC8"/>
<path d="M119.27 128.416V126.874H120.058V122.247H119.27V120.705H122.018L124.598 124.957L124.535 122.247H123.727V120.705H127.283V122.247H126.507V128.416H124.835L121.987 123.771L122.024 126.893H122.844V128.435L119.27 128.416Z" fill="#1E8EC8"/>
<path d="M127.621 128.416V126.874H128.41V122.247H127.621V120.705H131.24V122.247H130.426V126.874H131.24V128.416H127.621Z" fill="#1E8EC8"/>
<path d="M134.245 128.416L132.173 122.247H131.547V120.705H134.784V122.247H134.076L135.184 125.994L136.299 122.247H135.623V120.705H138.853V122.247H138.227L136.167 128.416H134.245Z" fill="#1E8EC8"/>
<path d="M139.18 128.416V126.874H139.969V122.247H139.18V120.705H146.117V123.477H144.777L144.307 122.229H141.985V123.477H143.506V125.194H141.985V126.849H144.307L144.777 125.351H146.117V128.391L139.18 128.416Z" fill="#1E8EC8"/>
<path d="M146.893 128.416V126.874H147.669V122.247H146.893V120.705H151.663C151.932 120.69 152.201 120.731 152.453 120.826C152.705 120.922 152.933 121.068 153.125 121.257C153.316 121.446 153.465 121.673 153.563 121.923C153.661 122.174 153.705 122.441 153.692 122.71C153.71 123.1 153.591 123.484 153.356 123.796C153.12 124.109 152.783 124.329 152.402 124.42C153.16 124.651 153.366 124.907 153.366 125.538V126.874H154.068V128.416H151.357V126.618C151.357 125.326 151.119 125.138 150.305 125.138H149.679V126.874H150.305V128.416H146.893ZM149.685 122.247V123.877H150.48C151.213 123.877 151.551 123.621 151.551 123.059C151.551 122.497 151.213 122.247 150.48 122.247H149.685Z" fill="#1E8EC8"/>
<path d="M156.315 128.416H154.631V125.8H156.421C157.047 126.637 157.504 126.949 158.13 126.949C158.65 126.949 158.994 126.674 158.994 126.275C158.994 125.875 158.675 125.65 158.062 125.544L157.241 125.413C155.451 125.12 154.574 124.32 154.574 122.99C154.581 122.657 154.655 122.328 154.792 122.024C154.929 121.719 155.125 121.445 155.369 121.218C155.614 120.99 155.902 120.814 156.216 120.699C156.53 120.584 156.863 120.533 157.198 120.549C157.548 120.53 157.898 120.597 158.217 120.744C158.535 120.891 158.813 121.113 159.026 121.392V120.705H160.666V123.134H158.982C158.544 122.385 158.093 122.029 157.554 122.029C157.456 122.017 157.356 122.024 157.26 122.052C157.165 122.079 157.076 122.125 156.999 122.188C156.922 122.25 156.858 122.327 156.811 122.415C156.765 122.502 156.736 122.598 156.728 122.697C156.728 123.078 157.028 123.321 157.799 123.452L158.512 123.577C160.297 123.914 161.142 124.695 161.142 126.006C161.159 126.356 161.101 126.705 160.972 127.031C160.843 127.356 160.645 127.65 160.393 127.893C160.14 128.136 159.838 128.323 159.507 128.44C159.177 128.557 158.825 128.602 158.475 128.572C158.056 128.586 157.64 128.506 157.255 128.34C156.871 128.174 156.528 127.925 156.252 127.611L156.315 128.416Z" fill="#1E8EC8"/>
<path d="M161.75 128.416V126.874H162.545V122.247H161.763V120.705H165.369V122.247H164.555V126.874H165.369V128.416H161.75Z" fill="#1E8EC8"/>
<path d="M167.254 128.416V126.874H168.043V122.229H167.417L167.016 123.44H165.764V120.705H172.287V123.44H171.035L170.641 122.229H170.015V126.874H170.791V128.416H167.254Z" fill="#1E8EC8"/>
<path d="M174.616 128.416V126.874H175.392V125.563L173.189 122.247H172.562V120.705H175.962V122.247H175.336L176.457 124.071L177.565 122.247H176.939V120.705H180.257V122.247H179.662L177.402 125.563V126.868H178.197V128.41L174.616 128.416Z" fill="#1E8EC8"/>
<path d="M1.77183 110.434V108.561H2.72348V102.941H1.97217L1.49009 104.408H0V101.105H7.90122V104.408H6.37983L5.91026 102.941H5.1527V108.561H6.09809V110.434H1.77183Z" fill="#1E4F9E"/>
<path d="M8.4082 110.434V108.561H9.34733V102.941H8.4082V101.068H14.1619C14.4865 101.05 14.8112 101.1 15.1151 101.216C15.4189 101.331 15.6951 101.508 15.9259 101.737C16.1566 101.965 16.3367 102.239 16.4546 102.541C16.5724 102.843 16.6253 103.167 16.6099 103.491C16.6362 103.963 16.4969 104.43 16.2159 104.812C15.935 105.193 15.5298 105.466 15.0698 105.582C15.9839 105.857 16.2406 106.169 16.2406 106.925V108.548H17.0795V110.421H13.8113V108.248C13.8113 106.687 13.5171 106.456 12.5592 106.456H11.7891V108.561H12.5341V110.434H8.4082ZM11.7891 102.979V104.958H12.747C13.6298 104.958 14.043 104.652 14.043 103.971C14.043 103.291 13.6298 102.991 12.747 102.991L11.7891 102.979Z" fill="#1E4F9E"/>
<path d="M26.0582 102.928V107.212C26.0582 109.31 24.5618 110.621 22.1514 110.621C19.741 110.621 18.2446 109.31 18.2446 107.212V102.978H17.293V101.105H21.6756V102.978H20.6926V106.875C20.6795 107.076 20.7078 107.277 20.776 107.467C20.8441 107.657 20.9506 107.831 21.0888 107.978C21.227 108.125 21.394 108.242 21.5795 108.322C21.7649 108.403 21.9649 108.444 22.1671 108.444C22.3692 108.444 22.5692 108.403 22.7546 108.322C22.9401 108.242 23.1071 108.125 23.2453 107.978C23.3835 107.831 23.49 107.657 23.5581 107.467C23.6263 107.277 23.6546 107.076 23.6415 106.875V102.978H22.6585V101.105H25.5323C26.0206 101.012 26.2523 100.674 26.2773 99.8564H28.0804C28.0804 101.904 27.1038 102.679 26.0582 102.928Z" fill="#1E4F9E"/>
<path d="M37.4208 105.776C37.4261 106.47 37.2792 107.157 36.9904 107.789C36.7017 108.421 36.2781 108.983 35.7492 109.435C34.8145 110.202 33.6415 110.621 32.4309 110.621C31.2203 110.621 30.0474 110.202 29.1127 109.435C28.5862 108.98 28.164 108.417 27.8747 107.786C27.5853 107.154 27.4355 106.467 27.4355 105.773C27.4355 105.078 27.5853 104.392 27.8747 103.76C28.164 103.128 28.5862 102.565 29.1127 102.111C30.032 101.322 31.2127 100.904 32.4247 100.937C32.8735 100.934 33.3211 100.985 33.7582 101.087C34.3843 101.049 34.6786 100.793 34.6786 100.088H36.4817C36.5431 100.846 36.32 101.6 35.8556 102.204C36.3533 102.657 36.7499 103.208 37.0196 103.824C37.2893 104.439 37.426 105.104 37.4208 105.776ZM31.4981 100.412L29.7575 98.5391H31.9614L32.8567 100.412H31.4981ZM34.8664 105.776C34.8359 105.303 34.6673 104.849 34.3816 104.471C34.0958 104.092 33.7053 103.806 33.2581 103.646C32.8109 103.486 32.3266 103.46 31.8648 103.571C31.4029 103.682 30.9838 103.925 30.6589 104.271C30.334 104.617 30.1177 105.05 30.0364 105.516C29.9551 105.983 30.0125 106.463 30.2015 106.898C30.3905 107.333 30.7029 107.703 31.1001 107.963C31.4973 108.223 31.9621 108.361 32.4372 108.361C32.7696 108.359 33.0981 108.289 33.4026 108.157C33.7072 108.024 33.9815 107.831 34.2088 107.589C34.4361 107.347 34.6116 107.062 34.7247 106.75C34.8377 106.438 34.886 106.107 34.8664 105.776Z" fill="#1E4F9E"/>
<path d="M38.0527 110.434V108.56H39.0044V102.941H38.0527V101.068H41.371L44.5014 106.206L44.4326 102.935H43.4246V101.062H47.7258V102.935H46.7866V110.39H44.7644L41.3209 104.77L41.371 108.517H42.3352V110.39L38.0527 110.434Z" fill="#1E4F9E"/>
<path d="M53.9816 107.03V105.295H58.7148V107.03H57.8696V110.433H55.8348V109.216C55.4896 109.666 55.0424 110.028 54.5298 110.272C54.0172 110.516 53.4538 110.636 52.886 110.621C51.7444 110.627 50.6415 110.209 49.7931 109.447C49.2771 108.984 48.8648 108.418 48.5833 107.785C48.3017 107.152 48.1571 106.468 48.159 105.775C48.1473 105.143 48.2624 104.515 48.4974 103.927C48.7324 103.34 49.0826 102.805 49.5275 102.354C49.9724 101.904 50.5031 101.546 51.0884 101.303C51.6737 101.059 52.3019 100.935 52.9361 100.936C53.3608 100.913 53.7858 100.976 54.1851 101.122C54.5845 101.268 54.9498 101.494 55.2588 101.785V101.111H57.4376V104.333H55.0773C54.9337 103.959 54.6738 103.641 54.3358 103.426C53.9978 103.21 53.5994 103.108 53.199 103.134C52.8633 103.134 52.5311 103.203 52.2234 103.337C51.9157 103.471 51.6392 103.667 51.411 103.913C51.1829 104.158 51.0082 104.449 50.8978 104.765C50.7875 105.081 50.7439 105.417 50.7698 105.75C50.7698 107.311 51.734 108.348 53.199 108.348C53.6291 108.352 54.0504 108.226 54.407 107.987C54.7637 107.747 55.0389 107.405 55.1962 107.005L53.9816 107.03Z" fill="#1E4F9E"/>
<path d="M62.6708 110.433V108.56H63.6224V106.456H62.4141V104.714H63.6224V102.966H62.677V101.092H67.1097C68.0693 101.03 69.0305 101.186 69.9208 101.548C71.5737 102.422 72.3375 103.74 72.3375 105.757C72.4018 106.618 72.206 107.478 71.7752 108.227C71.3445 108.976 70.6986 109.579 69.9208 109.959C69.0305 110.321 68.0693 110.477 67.1097 110.415L62.6708 110.433ZM66.1268 102.978V104.726H67.9675V106.468H66.1268V108.573H66.853C68.7814 108.573 69.7894 107.617 69.7894 105.775C69.7894 103.933 68.7876 102.978 66.853 102.978H66.1268Z" fill="#1E4F9E"/>
<path d="M72.6758 110.434V108.561H73.4646L75.2052 102.942H74.266V101.068H80.8462V102.942H79.9384L81.6601 108.561H82.4678V110.434H78.3982V108.561H79.2309L78.8553 107.312H76.2946L75.9439 108.561H76.7704V110.434H72.6758ZM76.6765 105.658H78.4796L77.5655 102.704L76.6765 105.658ZM76.7516 113.213V111.433H78.3982V113.213H76.7516Z" fill="#1E4F9E"/>
<path d="M82.8066 110.434V108.561H83.7583V102.942H82.8066V101.068H87.1892V102.942H86.1625V108.561H87.1454V110.434H82.8066Z" fill="#1E4F9E"/>
<path d="M91.3965 110.434V108.561H92.3419V102.942H91.3965V101.068H95.7791V102.942H94.7961V104.64H97.5447V102.942H96.5617V101.068H100.944V102.942H99.9363V108.561H100.875V110.434H96.4928V108.561H97.4758V106.513H94.7273V108.561H95.7102V110.434H91.3965Z" fill="#1E4F9E"/>
<path d="M103.198 102.11C104.136 101.351 105.308 100.937 106.516 100.937C107.725 100.937 108.896 101.351 109.834 102.11C110.359 102.566 110.78 103.129 111.068 103.761C111.356 104.393 111.505 105.079 111.505 105.773C111.505 106.467 111.356 107.152 111.068 107.784C110.78 108.416 110.359 108.979 109.834 109.435C108.9 110.202 107.727 110.621 106.516 110.621C105.306 110.621 104.133 110.202 103.198 109.435C102.673 108.979 102.253 108.416 101.965 107.784C101.676 107.152 101.527 106.467 101.527 105.773C101.527 105.079 101.676 104.393 101.965 103.761C102.253 103.129 102.673 102.566 103.198 102.11ZM106.529 108.354C107.05 108.389 107.571 108.267 108.022 108.003C108.473 107.74 108.834 107.346 109.058 106.875C109.281 106.404 109.358 105.876 109.277 105.361C109.196 104.846 108.962 104.367 108.604 103.987C108.247 103.606 107.783 103.342 107.272 103.228C106.762 103.114 106.229 103.156 105.743 103.348C105.257 103.541 104.841 103.875 104.547 104.306C104.254 104.738 104.098 105.248 104.099 105.769C104.078 106.101 104.125 106.433 104.237 106.746C104.35 107.059 104.525 107.346 104.753 107.589C104.98 107.831 105.255 108.025 105.561 108.158C105.866 108.291 106.195 108.36 106.529 108.361V108.354ZM105.696 113.206V111.426H107.343V113.206H105.696Z" fill="#1E4F9E"/>
<path d="M122.012 107.018C121.763 107.823 121.318 108.553 120.718 109.145C120.117 109.737 119.379 110.172 118.569 110.411C117.76 110.65 116.904 110.686 116.077 110.516C115.25 110.345 114.478 109.974 113.829 109.435C113.303 108.98 112.881 108.417 112.591 107.786C112.302 107.154 112.152 106.467 112.152 105.773C112.152 105.078 112.302 104.392 112.591 103.76C112.881 103.128 113.303 102.565 113.829 102.111C114.75 101.324 115.93 100.906 117.141 100.937C117.614 100.92 118.084 101 118.524 101.173C118.963 101.346 119.362 101.608 119.696 101.942V101.112H121.85V104.702H119.489C119.328 104.235 119.019 103.834 118.609 103.558C118.199 103.282 117.711 103.147 117.217 103.172C116.547 103.192 115.91 103.468 115.44 103.943C114.969 104.419 114.7 105.057 114.688 105.725C114.677 106.393 114.925 107.04 115.379 107.53C115.834 108.021 116.46 108.319 117.129 108.361C117.595 108.379 118.056 108.262 118.456 108.023C118.856 107.785 119.178 107.436 119.383 107.018H122.012Z" fill="#1E4F9E"/>
<path d="M127.709 110.434V108.561H128.661V102.941H127.903L127.428 104.408H125.938V101.105H133.814V104.408H132.317L131.842 102.941H131.09V108.561H132.029V110.434H127.709Z" fill="#1E4F9E"/>
<path d="M134.334 110.434V108.561H135.279V102.942H134.334V101.068H138.717V102.942H137.734V104.64H140.488V102.942H139.499V101.068H143.882V102.942H142.886V108.561H143.832V110.434H139.449V108.561H140.438V106.513H137.684V108.561H138.667V110.434H134.334Z" fill="#1E4F9E"/>
<path d="M152.996 102.928V107.212C152.996 109.31 151.5 110.621 149.083 110.621C146.666 110.621 145.176 109.31 145.176 107.212V102.978H144.225V101.105H148.607V102.978H147.624V106.875C147.611 107.076 147.639 107.277 147.708 107.467C147.776 107.657 147.882 107.831 148.02 107.978C148.159 108.125 148.326 108.242 148.511 108.322C148.697 108.403 148.897 108.444 149.099 108.444C149.301 108.444 149.501 108.403 149.686 108.322C149.872 108.242 150.039 108.125 150.177 107.978C150.315 107.831 150.422 107.657 150.49 107.467C150.558 107.277 150.586 107.076 150.573 106.875V102.978H149.596V101.105H152.47C152.952 101.012 153.184 100.674 153.209 99.8564H155.012C154.993 101.904 154.023 102.679 152.996 102.928Z" fill="#1E4F9E"/>
<path d="M164.336 105.776C164.343 106.471 164.197 107.159 163.908 107.791C163.619 108.423 163.195 108.984 162.664 109.435C161.73 110.202 160.557 110.622 159.346 110.622C158.136 110.622 156.963 110.202 156.028 109.435C155.503 108.979 155.083 108.416 154.795 107.785C154.507 107.153 154.357 106.467 154.357 105.773C154.357 105.079 154.507 104.393 154.795 103.761C155.083 103.13 155.503 102.567 156.028 102.111C156.949 101.322 158.132 100.903 159.346 100.937C159.793 100.935 160.238 100.985 160.674 101.087C161.3 101.049 161.594 100.793 161.594 100.088H163.403C163.465 100.846 163.242 101.601 162.777 102.205C163.274 102.658 163.669 103.21 163.938 103.825C164.206 104.44 164.342 105.105 164.336 105.776ZM161.782 105.776C161.75 105.305 161.581 104.853 161.295 104.477C161.009 104.1 160.619 103.815 160.173 103.656C159.727 103.498 159.244 103.473 158.784 103.584C158.324 103.696 157.907 103.939 157.583 104.284C157.26 104.629 157.045 105.061 156.964 105.526C156.884 105.992 156.941 106.47 157.13 106.903C157.318 107.337 157.63 107.705 158.026 107.964C158.422 108.223 158.885 108.361 159.359 108.361C159.691 108.358 160.018 108.288 160.322 108.155C160.626 108.022 160.9 107.829 161.126 107.587C161.353 107.345 161.528 107.06 161.641 106.749C161.753 106.437 161.801 106.106 161.782 105.776Z" fill="#1E4F9E"/>
<path d="M164.967 110.434V108.56H165.918V102.941H164.967V101.068H168.285L171.416 106.206L171.34 102.935H170.339V101.062H174.634V102.935H173.694V110.39H171.672L168.235 104.77L168.279 108.517H169.268V110.39L164.967 110.434Z" fill="#1E4F9E"/>
<path d="M180.896 107.031V105.295H185.629V107.031H184.79V110.434H182.749V109.216C182.405 109.666 181.959 110.028 181.447 110.272C180.936 110.517 180.373 110.636 179.806 110.621C178.664 110.63 177.561 110.211 176.713 109.447C176.197 108.985 175.783 108.419 175.501 107.786C175.218 107.154 175.072 106.469 175.073 105.776C175.061 105.143 175.177 104.514 175.412 103.926C175.647 103.339 175.998 102.804 176.444 102.353C176.889 101.902 177.421 101.545 178.007 101.301C178.593 101.058 179.222 100.934 179.856 100.937C180.28 100.915 180.704 100.978 181.102 101.124C181.5 101.27 181.865 101.495 182.173 101.786V101.112H184.358V104.334H181.954C181.81 103.96 181.55 103.642 181.212 103.426C180.874 103.21 180.476 103.108 180.076 103.135C179.74 103.135 179.408 103.204 179.1 103.338C178.792 103.472 178.516 103.668 178.288 103.913C178.059 104.159 177.885 104.449 177.774 104.765C177.664 105.082 177.62 105.417 177.646 105.751C177.646 107.312 178.61 108.349 180.076 108.349C180.506 108.353 180.927 108.227 181.284 107.987C181.64 107.747 181.915 107.405 182.073 107.006L180.896 107.031Z" fill="#1E4F9E"/>
<path d="M189.648 110.434V108.561H190.588V102.942H189.648V101.068H194.031L195.49 104.902L196.873 101.068H201.256V102.942H200.311V108.561H201.256V110.434H196.98V108.561H197.969V103.391L196.047 108.455H194.889L192.967 103.391V108.561H193.968V110.434H189.648Z" fill="#1E4F9E"/>
<path d="M201.588 110.434V108.561H202.377L204.117 102.942H203.197V101.068H209.777V102.942H208.876L210.604 108.561H211.38V110.434H207.31V108.561H208.143L207.767 107.312H205.207L204.856 108.561H205.676V110.434H201.588ZM205.589 105.658H207.392L206.484 102.704L205.589 105.658ZM205.664 113.213V111.433H207.31V113.213H205.664Z" fill="#1E4F9E"/>
<path d="M211.717 110.434V108.561H212.668V102.942H211.717V101.068H216.099V102.942H215.116V108.561H216.099V110.434H211.717Z" fill="#1E4F9E"/>
<path d="M149.107 49.8829C152.801 26.8787 137.097 5.24303 114.031 1.55834C90.9637 -2.12634 69.2693 13.5353 65.5746 36.5395C61.8799 59.5438 77.5841 81.1794 100.651 84.8641C123.718 88.5488 145.412 72.8872 149.107 49.8829Z" fill="#1E4F9E"/>
<path d="M107.336 84.0084C99.2453 84.0084 91.3361 81.6157 84.6087 77.1328C77.8813 72.6499 72.638 66.2782 69.5417 58.8234C66.4455 51.3686 65.6353 43.1655 67.2138 35.2515C68.7923 27.3376 72.6884 20.0681 78.4096 14.3625C84.1307 8.65682 91.4199 4.77121 99.3554 3.19702C107.291 1.62283 115.516 2.43077 122.991 5.51865C130.466 8.60652 136.855 13.8357 141.35 20.5448C145.846 27.254 148.245 35.1417 148.245 43.2108C148.233 54.0274 143.919 64.3978 136.25 72.0463C128.581 79.6948 118.182 83.9969 107.336 84.0084ZM107.336 2.8377C99.3258 2.8377 91.4953 5.20663 84.8348 9.64494C78.1744 14.0833 72.9832 20.3916 69.9177 27.7722C66.8522 35.1529 66.0502 43.2743 67.6129 51.1096C69.1757 58.9448 73.0331 66.1419 78.6973 71.7908C84.3616 77.4397 91.5783 81.2867 99.4348 82.8452C107.291 84.4037 115.435 83.6038 122.836 80.5467C130.236 77.4895 136.562 72.3124 141.012 65.67C145.462 59.0276 147.838 51.2183 147.838 43.2295C147.831 32.5172 143.563 22.2453 135.969 14.6689C128.375 7.09238 118.078 2.83055 107.336 2.81897V2.8377Z" fill="white"/>
<path d="M107.337 70.8651C101.852 70.8651 96.4913 69.2433 91.9312 66.2046C87.3711 63.1659 83.817 58.8469 81.7182 53.7937C79.6194 48.7406 79.0703 43.1802 80.1402 37.8158C81.2102 32.4514 83.8512 27.5239 87.7292 23.6564C91.6072 19.7889 96.5481 17.1551 101.927 16.088C107.306 15.021 112.882 15.5686 117.948 17.6617C123.015 19.7548 127.346 23.2993 130.393 27.847C133.44 32.3947 135.066 37.7414 135.066 43.2109C135.06 50.5432 132.136 57.5734 126.937 62.7581C121.738 67.9429 114.689 70.8585 107.337 70.8651ZM107.337 16.1685C101.974 16.1685 96.7313 17.7546 92.2721 20.726C87.8129 23.6975 84.3374 27.9209 82.2851 32.8622C80.2327 37.8036 79.6958 43.2409 80.742 48.4866C81.7883 53.7323 84.3708 58.5508 88.163 62.3327C91.9553 66.1147 96.7868 68.6902 102.047 69.7336C107.307 70.7771 112.759 70.2415 117.714 68.1948C122.668 66.148 126.903 62.6819 129.883 58.2348C132.862 53.7877 134.453 48.5594 134.453 43.2109C134.444 36.0413 131.585 29.1678 126.501 24.0982C121.418 19.0286 114.526 16.1768 107.337 16.1685Z" fill="white"/>
<path d="M107.337 16.1689C101.974 16.1689 96.731 17.755 92.2718 20.7264C87.8126 23.6979 84.3371 27.9213 82.2848 32.8626C80.2325 37.804 79.6955 43.2413 80.7417 48.487C81.788 53.7327 84.3705 58.5512 88.1628 62.3331C91.955 66.1151 96.7865 68.6906 102.047 69.734C107.306 70.7775 112.759 70.2419 117.713 68.1952C122.668 66.1484 126.903 62.6823 129.883 58.2352C132.862 53.7881 134.452 48.5598 134.452 43.2113C134.444 36.0417 131.585 29.1682 126.501 24.0986C121.418 19.029 114.526 16.1772 107.337 16.1689Z" fill="#1E8EC8"/>
<path d="M96.18 78.6768L94.7963 78.0899L96.5932 73.869C95.8881 74.0391 95.1567 74.0709 94.4395 73.9627L94.8652 72.9449C95.3367 72.9981 95.8136 72.9812 96.2802 72.895C96.7441 72.8352 97.1798 72.6396 97.5323 72.333L98.6593 72.8076L96.18 78.6768Z" fill="white"/>
<path d="M100.424 78.5268L101.883 78.6266C101.869 78.8342 101.939 79.0385 102.077 79.1948C102.227 79.3427 102.424 79.4351 102.634 79.4571C102.781 79.4839 102.933 79.4782 103.078 79.4405C103.223 79.4027 103.357 79.3338 103.473 79.2386C103.815 78.8611 104.034 78.3883 104.099 77.8836C103.664 78.1767 103.131 78.2866 102.615 78.1896C102.032 78.1103 101.499 77.819 101.119 77.3716C100.931 77.1562 100.795 76.9007 100.721 76.6247C100.647 76.3488 100.638 76.0596 100.693 75.7794C100.729 75.4851 100.833 75.2032 100.997 74.9561C101.161 74.7089 101.381 74.5034 101.638 74.3558C102.207 74.0314 102.874 73.9227 103.517 74.0499C103.875 74.0923 104.221 74.2066 104.534 74.3858C104.847 74.565 105.121 74.8054 105.339 75.0926C105.719 75.8948 105.845 76.7934 105.701 77.6689C105.557 78.5444 105.149 79.3554 104.531 79.9941C104.216 80.2078 103.862 80.357 103.489 80.4331C103.116 80.5092 102.732 80.5107 102.358 80.4374C101.834 80.377 101.341 80.1593 100.943 79.813C100.612 79.4663 100.426 79.006 100.424 78.5268ZM104.18 76.4288C104.218 76.2663 104.22 76.0978 104.188 75.9343C104.155 75.7708 104.089 75.6159 103.993 75.4797C103.909 75.3619 103.803 75.2619 103.681 75.1857C103.558 75.1096 103.421 75.0588 103.279 75.0364C103.153 75.0118 103.024 75.013 102.9 75.0398C102.775 75.0666 102.657 75.1186 102.553 75.1925C102.432 75.2943 102.334 75.4191 102.263 75.5596C102.192 75.7001 102.15 75.8535 102.139 76.0105C102.066 76.331 102.122 76.6676 102.296 76.9471C102.38 77.057 102.485 77.1489 102.606 77.2176C102.726 77.2862 102.859 77.3301 102.997 77.3467C103.128 77.3722 103.264 77.3715 103.395 77.3447C103.526 77.3179 103.65 77.2655 103.761 77.1906C103.885 77.1022 103.988 76.9886 104.065 76.8573C104.142 76.7259 104.19 76.5799 104.205 76.4288H104.18Z" fill="white"/>
<path d="M112.802 75.6105L111.362 75.879C111.325 75.6723 111.208 75.4884 111.036 75.367C110.847 75.2576 110.626 75.2178 110.41 75.2546C110.259 75.2646 110.112 75.3072 109.979 75.3794C109.846 75.4516 109.731 75.5518 109.64 75.673C109.399 76.1245 109.303 76.6388 109.365 77.1465C109.533 76.9522 109.738 76.7931 109.968 76.6784C110.198 76.5637 110.448 76.4957 110.705 76.4784C111.293 76.4134 111.885 76.5643 112.37 76.903C112.605 77.0646 112.799 77.2773 112.939 77.5251C113.079 77.7728 113.161 78.049 113.178 78.3329C113.217 78.6275 113.188 78.9273 113.093 79.209C112.997 79.4906 112.838 79.7463 112.627 79.9563C112.153 80.4104 111.53 80.6787 110.874 80.7118C110.516 80.7596 110.153 80.735 109.806 80.6395C109.458 80.544 109.134 80.3796 108.851 80.1561C108.536 79.8474 108.286 79.4791 108.115 79.0728C107.944 78.6665 107.856 78.2303 107.856 77.7897C107.772 77.3445 107.778 76.887 107.873 76.4441C107.969 76.0013 108.153 75.582 108.413 75.2109C108.664 74.9258 108.969 74.6938 109.311 74.5286C109.653 74.3634 110.025 74.2685 110.404 74.2494C110.924 74.1795 111.453 74.2711 111.919 74.5116C112.133 74.6264 112.321 74.7829 112.473 74.9717C112.624 75.1604 112.736 75.3777 112.802 75.6105ZM109.672 78.5764C109.68 78.7441 109.721 78.9086 109.795 79.0599C109.868 79.2111 109.971 79.3461 110.097 79.4568C110.207 79.5487 110.333 79.6181 110.47 79.661C110.606 79.7039 110.75 79.7193 110.892 79.7065C111.151 79.6879 111.391 79.5691 111.562 79.3756C111.654 79.2478 111.718 79.1026 111.752 78.9491C111.785 78.7956 111.787 78.6369 111.756 78.4827C111.755 78.3198 111.72 78.1589 111.655 78.0098C111.589 77.8606 111.494 77.7262 111.375 77.6148C111.267 77.5277 111.142 77.4634 111.009 77.4258C110.875 77.3882 110.736 77.3782 110.598 77.3963C110.456 77.4045 110.318 77.4428 110.192 77.5086C110.066 77.5743 109.955 77.6661 109.868 77.7777C109.78 77.8893 109.717 78.0183 109.683 78.156C109.65 78.2937 109.646 78.437 109.672 78.5764Z" fill="white"/>
<path d="M116.415 72.9074C116.714 72.7858 117.035 72.7265 117.358 72.7329C117.681 72.7393 117.999 72.8115 118.293 72.9449C118.944 73.2613 119.47 73.9897 119.871 75.1303C120.259 75.9819 120.304 76.9501 119.996 77.8339C119.845 78.1217 119.636 78.3759 119.383 78.5809C119.13 78.7859 118.838 78.9375 118.525 79.0265C118.208 79.1507 117.869 79.2092 117.529 79.1984C117.189 79.1877 116.854 79.1079 116.546 78.964C115.92 78.6643 115.444 77.9463 115.044 76.7911C114.656 75.9455 114.614 74.9827 114.925 74.1063C115.076 73.8139 115.286 73.5563 115.543 73.3499C115.799 73.1434 116.096 72.9927 116.415 72.9074ZM116.747 73.8628C116.583 73.9151 116.439 74.0151 116.333 74.15C116.217 74.3224 116.164 74.5298 116.183 74.7369C116.235 75.2707 116.364 75.7942 116.565 76.2916C116.712 76.7848 116.923 77.257 117.191 77.6965C117.315 77.8848 117.498 78.0274 117.711 78.1024C117.874 78.152 118.048 78.152 118.212 78.1024C118.377 78.048 118.523 77.9459 118.631 77.8089C118.742 77.6343 118.793 77.4281 118.775 77.222C118.722 76.691 118.596 76.1699 118.399 75.6735C118.256 75.179 118.045 74.7064 117.773 74.2686C117.65 74.0811 117.47 73.937 117.26 73.8565C117.092 73.8046 116.913 73.8068 116.747 73.8628Z" fill="white"/>
<path d="M124.254 51.6532H114.963V35.5689H110.211V51.6532H104.444V35.5689H99.686V51.6532H90.4199V30.5488H124.229L124.254 51.6532ZM115.808 50.8478H123.427V31.3543H91.2464V50.8478H98.8596V34.7635H105.271V50.8478H109.403V34.7635H115.808V50.8478Z" fill="white"/>
<path d="M123.427 50.8474V31.3477H91.252V50.8474H98.8589V34.7631H105.27V50.8474H109.402V34.7631H115.807V50.8474H123.427Z" fill="#F48220"/>
<path d="M131.784 53.7576H110.791C110.791 53.7576 107.661 53.6515 107.335 55.8993C107.022 53.6515 103.829 53.7576 103.829 53.7576H82.8867C84.0728 56.4833 85.7515 58.9681 87.8391 61.088H102.571C102.571 63.879 106.728 64.0726 107.279 64.085H107.342C107.893 64.085 112.05 63.879 112.05 61.088H126.857C128.937 58.9676 130.608 56.4825 131.784 53.7576Z" fill="white"/>
<path d="M130.715 55.918H111.15C111.15 55.918 107.656 56.0054 107.337 58.197C107.018 56.0054 103.474 55.918 103.474 55.918H83.959C84.1468 56.2489 84.3409 56.5798 84.5413 56.9045H103.574C106.41 56.9045 107.168 57.9785 107.331 58.3718C107.5 57.9785 108.214 56.9045 111.044 56.9045H130.127C130.333 56.5798 130.527 56.2551 130.715 55.918Z" fill="#F48220"/>
<path d="M129.363 58.1279H111.162C111.162 58.1279 107.669 58.2153 107.35 60.407C107.03 58.2153 103.487 58.1279 103.487 58.1279H85.3301C85.5617 58.4589 85.8059 58.7898 86.0563 59.1145H103.587C106.417 59.1145 107.181 60.1884 107.343 60.5818C107.512 60.1884 108.22 59.1145 111.056 59.1145H128.624C128.881 58.7523 129.125 58.4276 129.363 58.1279Z" fill="#F48220"/>
<path d="M89.3424 70.3164L89.9372 71.5152L91.2708 71.7088L90.3066 72.6454L90.532 73.9753L89.3424 73.3509L88.1529 73.9753L88.3782 72.6454L87.4141 71.7088L88.7476 71.5152L89.3424 70.3164Z" fill="white"/>
<path d="M125.686 70.3164L126.281 71.5152L127.615 71.7088L126.65 72.6454L126.876 73.9753L125.686 73.3509L124.49 73.9753L124.722 72.6454L123.758 71.7088L125.085 71.5152L125.686 70.3164Z" fill="white"/>
<path d="M81.9792 68.1493L83.2627 69.4918L82.4049 70.2848L78.8926 66.6009L79.7253 65.8141L81.0088 67.1628L84.6839 63.6787L85.623 64.6652L81.9792 68.1493Z" fill="white"/>
<path d="M77.6042 64.915L75.8073 62.0928C75.669 61.8938 75.5727 61.6689 75.5243 61.4317C75.4759 61.1945 75.4763 60.9499 75.5256 60.7129C75.571 60.4924 75.6618 60.2837 75.7922 60.0999C75.9226 59.9161 76.0898 59.7613 76.2831 59.6452C76.547 59.4426 76.8705 59.3328 77.2035 59.3328C77.5364 59.3328 77.86 59.4426 78.1238 59.6452C77.961 59.1019 78.2052 58.5899 78.8689 58.1029L79.0817 57.9531L79.351 57.7595L79.6014 57.5597C79.6865 57.4886 79.7641 57.4091 79.833 57.3224C79.8901 57.2549 79.9365 57.1791 79.9708 57.0977L80.7033 58.2528C80.615 58.3676 80.5142 58.4723 80.4028 58.565L79.9457 58.9271C79.7642 59.0582 79.639 59.1581 79.5576 59.2268C79.3446 59.3806 79.1884 59.6 79.1131 59.8512C79.0829 60.1124 79.1571 60.3748 79.3197 60.5817L80.0522 61.7369L82.1057 60.4381L82.832 61.5933L77.6042 64.915ZM79.2445 62.2614L78.4431 61.0126C78.3259 60.7871 78.1265 60.6151 77.8859 60.5318C77.7651 60.5091 77.6409 60.5119 77.5213 60.5398C77.4016 60.5678 77.2891 60.6203 77.191 60.6941C77.0825 60.7512 76.9886 60.8322 76.9162 60.9309C76.8438 61.0296 76.7948 61.1434 76.7731 61.2638C76.7514 61.3841 76.7574 61.5078 76.7908 61.6255C76.8241 61.7432 76.8839 61.8517 76.9656 61.9429L77.767 63.1917L79.2445 62.2614Z" fill="white"/>
<path d="M77.1472 56.8793L73.4971 58.1281L73.0713 56.8793L76.7214 55.6305C77.031 55.5446 77.3176 55.391 77.5604 55.181C77.7059 55.0314 77.8005 54.8399 77.8309 54.6337C77.8612 54.4275 77.8257 54.217 77.7294 54.0321C77.5604 53.5326 77.2849 53.2641 76.8967 53.2329C76.5762 53.2086 76.2545 53.2599 75.9576 53.3827L72.3075 54.6315L71.8818 53.3827L72.9336 53.0206C72.8615 52.7958 72.7321 52.5935 72.5579 52.4336L72.0758 52.9893L71.1367 52.0777L72.0007 51.085L72.8272 51.8093C72.9792 51.9463 73.1137 52.1015 73.2278 52.2713C73.3456 52.4258 73.4191 52.6092 73.4407 52.802L75.5506 52.0902C76.0467 51.8914 76.5856 51.8226 77.1159 51.8904C77.8859 52.0278 78.4494 52.6147 78.8 53.6387C79.1506 54.6627 79.0567 55.4682 78.5371 56.0551C78.1518 56.4436 77.6734 56.7273 77.1472 56.8793Z" fill="white"/>
<path d="M68.6309 46.1769L69.8517 45.2903L69.9018 46.1644L68.6997 47.5131L68.6309 46.1769ZM76.1439 43.5857C76.6483 44.1355 76.9469 44.8422 76.9891 45.5863C77.0313 46.3304 76.8146 47.0661 76.3756 47.6692C76.0572 48.0154 75.6702 48.2919 75.2391 48.481C74.808 48.6702 74.3422 48.768 73.8712 48.7682C73.3997 48.8293 72.9205 48.7891 72.4658 48.6501C72.0112 48.5112 71.5916 48.2768 71.2354 47.9627C70.9165 47.6608 70.6682 47.2925 70.5082 46.884C70.3483 46.4755 70.2805 46.0369 70.3098 45.5993C70.3391 45.1618 70.4647 44.736 70.6777 44.3524C70.8907 43.9687 71.1858 43.6366 71.5422 43.3797C71.5403 43.1425 71.4709 42.9108 71.3418 42.7116L70.7157 43.1112L70.0208 42.056L71.1227 41.3379L71.7488 42.2557C71.8573 42.4282 71.9456 42.6126 72.0117 42.8052C72.0485 42.9079 72.0717 43.015 72.0806 43.1237C72.5463 42.9401 73.0392 42.8346 73.5394 42.8115C74.0036 42.7549 74.4744 42.7945 74.9226 42.9277C75.3707 43.061 75.7865 43.2849 76.1439 43.5857ZM73.5832 44.0852C73.0057 44.087 72.4448 44.2778 71.9867 44.6284C71.8091 44.7817 71.6705 44.9748 71.5824 45.1919C71.4942 45.409 71.459 45.6439 71.4796 45.8772C71.4805 46.1141 71.5377 46.3474 71.6465 46.558C71.7554 46.7685 71.9127 46.9504 72.1056 47.0885C72.598 47.3907 73.1781 47.5183 73.7522 47.4507C74.333 47.4509 74.8971 47.2574 75.355 46.9012C75.5299 46.7458 75.6666 46.5523 75.7545 46.3358C75.8425 46.1192 75.8793 45.8854 75.8622 45.6524C75.8603 45.4175 75.8025 45.1863 75.6937 44.9779C75.5849 44.7695 75.428 44.5898 75.2361 44.4536C74.758 44.1614 74.1977 44.0322 73.6396 44.0852H73.5832Z" fill="white"/>
<path d="M70.6973 38.9026L70.9477 37.5727L75.5244 35.7994L71.436 35.0251L71.674 33.7764L77.7783 34.9252L77.5216 36.2739L72.9574 38.0347L77.0458 38.8027L76.8141 40.0515L70.6973 38.9026Z" fill="white"/>
<path d="M79.2755 29.2183C79.4416 29.4995 79.5379 29.8162 79.5564 30.142C79.5749 30.4678 79.5151 30.7934 79.3819 31.0915C79.2364 31.4794 79.0073 31.8308 78.711 32.121C78.4146 32.4112 78.058 32.6331 77.6664 32.7711C76.862 33.0373 75.9859 32.9859 75.2184 32.6275C74.4163 32.3186 73.7609 31.7186 73.384 30.9478C73.0963 30.2711 73.0646 29.5133 73.2949 28.8151C73.5252 28.1169 74.0018 27.5258 74.6361 27.1516C74.9112 27.0009 75.2148 26.9092 75.5275 26.8823C75.8401 26.8554 76.1549 26.894 76.4518 26.9955L75.9384 28.1943C75.6352 28.1282 75.3185 28.1702 75.0431 28.3129C74.7784 28.4659 74.5733 28.7035 74.4608 28.9872C74.3109 29.305 74.2777 29.6653 74.3669 30.005C74.4514 30.3168 74.6229 30.5984 74.8615 30.8167C75.1276 31.0493 75.4301 31.237 75.7568 31.3724C76.2311 31.5941 76.7626 31.6639 77.2782 31.5722C77.5196 31.5201 77.7435 31.4073 77.9287 31.2444C78.1139 31.0816 78.2543 30.8741 78.3363 30.6419C78.4292 30.4801 78.4868 30.3006 78.5053 30.1152C78.5238 29.9297 78.5028 29.7424 78.4437 29.5656C78.3846 29.3887 78.2887 29.2263 78.1623 29.089C78.0359 28.9517 77.8818 28.8426 77.7102 28.7687L77.1655 30.0175L76.2327 29.6179L77.2595 27.2265L80.3461 28.5439L80.008 29.3432L79.2755 29.2183Z" fill="white"/>
<path d="M82.5304 25.1348L80.4267 23.3115L80.0073 23.7861L79.3812 23.2304L79.7944 22.7496L77.8535 21.0637L79.6128 19.047C79.8496 18.7547 80.144 18.5141 80.4779 18.3401C80.8118 18.1661 81.1779 18.0624 81.5537 18.0354C81.9671 18.0298 82.3774 18.107 82.7602 18.2626C83.1431 18.4181 83.4908 18.6487 83.7826 18.9408C84.4311 19.4477 84.8755 20.1701 85.0347 20.9763C85.0852 21.3649 85.046 21.7598 84.9202 22.131C84.7943 22.5021 84.5851 22.8397 84.3085 23.118L82.5304 25.1348ZM79.6066 20.764L80.6834 21.7006L81.5975 20.6516L82.2236 21.2136L81.3095 22.2626L82.5617 23.3303L83.3568 22.4124C83.4966 22.2624 83.6033 22.085 83.6701 21.8914C83.737 21.6979 83.7625 21.4925 83.745 21.2885C83.6631 20.7874 83.3864 20.3387 82.9749 20.0397C82.5897 19.6577 82.087 19.4158 81.5474 19.3529C81.2912 19.3589 81.0399 19.4247 80.8137 19.5451C80.5876 19.6655 80.3928 19.837 80.2452 20.046L79.6066 20.764Z" fill="white"/>
<path d="M86.6745 20.4957L84.7148 14.1519L85.8981 13.2715L91.4265 16.9491L90.2933 17.7983L89.1976 17.0053L87.3194 18.3915L87.7514 19.6715L86.6745 20.4957ZM86.1611 14.8762L86.9875 17.33L88.2397 16.3747L86.1611 14.8762ZM89.4481 20.1772L88.822 19.3718L89.711 18.7099L90.3371 19.5154L89.4481 20.1772Z" fill="white"/>
<path d="M89.4609 11.0863L90.6693 10.4619L93.5868 15.9316L92.3785 16.556L89.4609 11.0863Z" fill="white"/>
<path d="M95.9668 8.17648L97.2941 7.84555L97.8638 10.1558L100.306 9.53141L99.7358 7.22116L101.063 6.89648L102.553 12.9093L101.226 13.2403L100.562 10.674L98.1205 11.2984L98.7466 13.8959L97.4193 14.2206L95.9668 8.17648Z" fill="white"/>
<path d="M108.794 12.0853C108.224 12.5669 107.505 12.8379 106.758 12.8527C106.011 12.8675 105.282 12.6251 104.693 12.1665C104.356 11.8336 104.092 11.4337 103.919 10.9926C103.747 10.5516 103.669 10.0794 103.691 9.60646C103.645 9.13377 103.702 8.65665 103.859 8.20816C104.016 7.75967 104.268 7.35051 104.599 7.009C105.168 6.52519 105.888 6.25274 106.635 6.23794C107.383 6.22314 108.112 6.46691 108.7 6.92782C109.041 7.25855 109.306 7.65813 109.479 8.09968C109.652 8.54123 109.728 9.01454 109.702 9.48783C109.741 9.96001 109.68 10.4351 109.524 10.8825C109.368 11.3299 109.119 11.7396 108.794 12.0853ZM108.387 9.51281C108.41 8.93732 108.241 8.37049 107.905 7.90187C107.749 7.72147 107.554 7.57764 107.336 7.48062C107.117 7.38361 106.88 7.3358 106.641 7.34057C106.402 7.34534 106.167 7.40257 105.952 7.50822C105.738 7.61386 105.55 7.76534 105.401 7.95183C105.111 8.44668 104.964 9.01133 104.975 9.584C104.986 10.1567 105.155 10.7153 105.463 11.1986C105.613 11.3829 105.805 11.5292 106.023 11.6258C106.24 11.7223 106.478 11.7664 106.715 11.7544C106.959 11.76 107.201 11.706 107.419 11.5972C107.637 11.4884 107.826 11.328 107.968 11.13C108.283 10.6523 108.431 10.0833 108.387 9.51281ZM106.233 14.2519V13.2466H107.335V14.2582L106.233 14.2519Z" fill="white"/>
<path d="M115.757 9.56867C115.775 9.25799 115.669 8.95278 115.462 8.71949C115.254 8.46691 114.964 8.29467 114.642 8.23247C114.301 8.15339 113.943 8.19304 113.628 8.34485C113.34 8.4807 113.098 8.69779 112.933 8.96924C112.755 9.27486 112.63 9.60846 112.564 9.95579C112.445 10.4637 112.486 10.9959 112.683 11.4793C112.78 11.7045 112.935 11.9006 113.131 12.0484C113.328 12.1961 113.559 12.2905 113.803 12.3222C113.977 12.3664 114.158 12.3742 114.334 12.3452C114.511 12.3162 114.68 12.251 114.83 12.1536C115.134 11.9269 115.354 11.6064 115.456 11.242L116.752 11.5105C116.674 11.8478 116.53 12.1661 116.327 12.4467C116.124 12.7274 115.866 12.9646 115.57 13.1444C115.274 13.3243 114.944 13.443 114.601 13.4938C114.258 13.5445 113.908 13.5262 113.572 13.4399C113.16 13.3755 112.768 13.2226 112.422 12.9919C112.076 12.7612 111.785 12.4581 111.568 12.1037C111.147 11.3722 111.021 10.5079 111.217 9.68731C111.361 8.83981 111.819 8.07729 112.501 7.55188C112.836 7.30353 113.222 7.13266 113.631 7.05166C114.041 6.97066 114.463 6.98156 114.868 7.08359C115.51 7.19997 116.094 7.53278 116.52 8.02643C116.725 8.27186 116.877 8.55622 116.967 8.86217C117.058 9.16813 117.085 9.48924 117.046 9.80592L115.757 9.56867Z" fill="white"/>
<path d="M123.508 11.4925L121.849 10.6121L122.387 9.60059L126.882 11.9982L126.338 13.0035L124.697 12.1294L122.306 16.5875L121.104 15.9631L123.508 11.4925Z" fill="white"/>
<path d="M128.691 13.1719L129.743 14.0398L128.228 15.8755L130.169 17.4739L131.684 15.6382L132.742 16.5061L128.785 21.2889L127.727 20.421L129.436 18.3543L127.495 16.7621L125.792 18.8226L124.734 17.9547L128.691 13.1719Z" fill="white"/>
<path d="M131.766 20.8397L134.859 18.542L135.654 19.6097L132.568 21.9137C132.296 22.0879 132.069 22.3231 131.904 22.6005C131.838 22.7938 131.821 23.0001 131.854 23.2015C131.887 23.403 131.968 23.5933 132.092 23.756C132.215 23.9186 132.377 24.0486 132.563 24.1345C132.748 24.2205 132.952 24.2597 133.156 24.2489C133.47 24.169 133.761 24.0196 134.008 23.8118L137.094 21.5141L137.89 22.5755L137.001 23.2436C137.134 23.4393 137.321 23.5931 137.539 23.687L137.827 23.0126L138.992 23.5059L138.472 24.7172L137.464 24.2864C137.278 24.2006 137.102 24.096 136.938 23.9742C136.781 23.8593 136.656 23.7068 136.575 23.5309L134.784 24.8608C134.374 25.2028 133.882 25.433 133.357 25.5289C132.58 25.6351 131.867 25.2479 131.216 24.38C130.564 23.5121 130.402 22.7192 130.721 22.0011C130.969 21.5344 131.328 21.1356 131.766 20.8397Z" fill="white"/>
<path d="M136.805 33.1149C136.154 32.7512 135.648 32.1736 135.376 31.4804C135.103 30.7871 135.079 30.021 135.309 29.3124C135.503 28.8797 135.787 28.493 136.142 28.1777C136.498 27.8624 136.915 27.6256 137.369 27.4829C137.797 27.2753 138.264 27.1627 138.74 27.153C139.216 27.1433 139.688 27.2367 140.124 27.4267C140.774 27.7932 141.278 28.3721 141.551 29.0659C141.823 29.7596 141.848 30.5258 141.62 31.2355C141.528 31.4578 141.408 31.6676 141.263 31.8599C141.338 32.0842 141.477 32.2817 141.664 32.4281L142.121 31.8599L143.11 32.6466L142.29 33.6706L141.432 32.9838C141.273 32.8553 141.13 32.7086 141.006 32.5467C140.944 32.457 140.887 32.3631 140.837 32.2657C140.465 32.5836 140.042 32.8368 139.585 33.015C139.155 33.2254 138.685 33.3431 138.206 33.3603C137.727 33.3775 137.25 33.2939 136.805 33.1149ZM139.084 31.8661C139.635 31.6901 140.109 31.3336 140.43 30.8546C140.552 30.6521 140.624 30.4235 140.639 30.1878C140.654 29.952 140.613 29.7161 140.518 29.4997C140.439 29.274 140.308 29.0703 140.135 28.9053C139.962 28.7402 139.752 28.6187 139.523 28.5506C138.957 28.4522 138.375 28.5108 137.841 28.72C137.306 28.9293 136.84 29.2811 136.492 29.7369C136.37 29.9416 136.298 30.1728 136.284 30.4107C136.27 30.6487 136.313 30.8866 136.411 31.1044C136.487 31.3288 136.617 31.5313 136.79 31.6945C136.962 31.8576 137.171 31.9765 137.4 32.0409C137.968 32.1666 138.562 32.0961 139.084 31.8411V31.8661Z" fill="white"/>
<path d="M143.473 35.875L143.649 37.2175L139.842 40.3394L143.98 39.8087L144.143 41.0575L137.976 41.8442L137.801 40.4955L141.601 37.411L137.475 37.9355L137.312 36.6867L143.473 35.875Z" fill="white"/>
<path d="M138.303 47.7695C138.054 47.5505 137.862 47.2751 137.742 46.9665C137.622 46.6579 137.578 46.3252 137.614 45.9962C137.634 45.5818 137.743 45.1767 137.936 44.809C138.128 44.4413 138.399 44.1198 138.729 43.867C139.411 43.3647 140.26 43.1413 141.102 43.2426C141.961 43.29 142.771 43.6603 143.368 44.2791C143.652 44.5847 143.863 44.9495 143.988 45.347C144.112 45.7444 144.147 46.1646 144.088 46.5769C144.045 47.2122 143.782 47.8129 143.343 48.2752C143.129 48.504 142.869 48.6851 142.58 48.8067C142.29 48.9283 141.979 48.9876 141.665 48.9808L141.784 47.682C142.094 47.6604 142.385 47.5244 142.601 47.3005C142.816 47.0766 142.94 46.7808 142.949 46.4707C142.991 46.1237 142.912 45.7727 142.723 45.4779C142.547 45.2038 142.295 44.9868 141.997 44.8535C141.673 44.7143 141.328 44.6279 140.976 44.5975C140.458 44.5364 139.934 44.6345 139.474 44.8785C139.259 45.0013 139.08 45.1774 138.954 45.3897C138.828 45.6019 138.759 45.8431 138.754 46.0898C138.714 46.2742 138.714 46.4649 138.754 46.6492C138.795 46.8334 138.874 47.0069 138.988 47.1578C139.101 47.3088 139.246 47.4337 139.412 47.5241C139.577 47.6146 139.761 47.6684 139.95 47.682L140.081 46.3146L141.089 46.4083L140.851 48.9995L137.508 48.6936L137.589 47.8319L138.303 47.7695Z" fill="white"/>
<path d="M142.247 55.1495L141.465 56.879L136.969 56.4544L140.307 59.4515L139.524 61.1998L133.852 58.6585L134.377 57.4972L138.397 59.2954L134.997 56.111L135.429 55.1557L140.031 55.5491L136.055 53.7571L136.581 52.5957L142.247 55.1495Z" fill="white"/>
<path d="M133.269 59.5449L136.85 65.1644L135.936 66.3321L129.625 64.2403L130.502 63.1227L131.754 63.5972L133.175 61.774L132.424 60.6501L133.269 59.5449ZM130.689 60.6251L131.484 61.2495L130.808 62.1237L130.007 61.4993L130.689 60.6251ZM135.266 64.8647L133.814 62.7231L132.837 63.9718L135.266 64.8647Z" fill="white"/>
<path d="M133.119 69.3231L132.123 70.2597L127.854 65.7579L128.843 64.8213L133.119 69.3231Z" fill="white"/>
<path d="M94.6582 24.2424V26.896H98.8718V28.8191H115.807V26.7899H120.021V24.2424L107.336 23.0186L94.6582 24.2424Z" fill="#F48220"/>
<path d="M93.8438 23.5054V27.7075H98.0573V29.6306H116.615V27.6076H120.834V23.5054L107.336 22.2129L93.8438 23.5054ZM120.02 26.7959H115.807V28.8189H98.9025V26.9083H94.689V24.2609L107.367 23.0121L120.052 24.2609L120.02 26.7959Z" fill="white"/>
</svg>
